<svg xmlns="http://www.w3.org/2000/svg" width="1250" height="1130" viewBox="0 0 1250 1130" font-family="Segoe UI, Arial, sans-serif">
  <defs>
    <filter id="sombra" x="-10%" y="-20%" width="120%" height="150%">
      <feDropShadow dx="0" dy="4" stdDeviation="6" flood-color="#000" flood-opacity="0.06"/>
    </filter>
    <marker id="seta" viewBox="0 0 12 12" refX="11" refY="6" markerUnits="userSpaceOnUse" markerWidth="12" markerHeight="12" orient="auto">
      <path d="M1,1 L11,6 L1,11" fill="none" stroke="#4A4A4A" stroke-width="1.6" stroke-linejoin="round" stroke-linecap="round"/>
    </marker>
    <marker id="heranca" viewBox="0 0 20 20" refX="20" refY="10" markerUnits="userSpaceOnUse" markerWidth="18" markerHeight="18" orient="auto">
      <path d="M1,1 L19,10 L1,19 z" fill="#FFFFFF" stroke="#4A4A4A" stroke-width="1.6" stroke-linejoin="round"/>
    </marker>
  </defs>
  <rect width="1250" height="1130" fill="#FFFFFF"/>
  <rect x="300" y="50" width="890" height="1040" rx="28" fill="none" stroke="#2BB3C0" stroke-width="4" stroke-dasharray="1 10" stroke-linecap="round"/>
  <rect x="635" y="30" width="220" height="40" rx="20" fill="#FFFFFF" stroke="#2BB3C0" stroke-width="3"/>
  <text x="745" y="56" text-anchor="middle" font-size="17" font-weight="700" fill="#2B2B2B">Sistema AgroAlerta</text>
  <line x1="180" y1="150" x2="567.4" y2="150" stroke="#4A4A4A" stroke-width="1.6"/>
  <line x1="180" y1="485" x2="630.4" y2="324.8" stroke="#4A4A4A" stroke-width="1.6"/>
  <line x1="180" y1="485" x2="606.8" y2="407" stroke="#4A4A4A" stroke-width="1.6"/>
  <line x1="180" y1="485" x2="571.3" y2="481.2" stroke="#4A4A4A" stroke-width="1.6"/>
  <line x1="180" y1="485" x2="604.1" y2="554.3" stroke="#4A4A4A" stroke-width="1.6"/>
  <line x1="180" y1="485" x2="634.7" y2="664.3" stroke="#4A4A4A" stroke-width="1.6"/>
  <line x1="180" y1="920" x2="602.8" y2="855" stroke="#4A4A4A" stroke-width="1.6"/>
  <line x1="180" y1="920" x2="564.1" y2="927.4" stroke="#4A4A4A" stroke-width="1.6"/>
  <line x1="180" y1="920" x2="591.1" y2="999.1" stroke="#4A4A4A" stroke-width="1.6"/>
  <line x1="150" y1="248" x2="150" y2="430" stroke="#4A4A4A" stroke-width="1.6" marker-end="url(#heranca)"/>
  <line x1="150" y1="864" x2="150" y2="581" stroke="#4A4A4A" stroke-width="1.6" marker-end="url(#heranca)"/>
  <line x1="700" y1="658" x2="700" y2="602" stroke="#4A4A4A" stroke-width="1.6" stroke-dasharray="7 5" marker-end="url(#seta)"/>
  <text x="712" y="635" font-size="13" fill="#1E8A95">«extend»</text>
  <line x1="810" y1="570" x2="920" y2="570" stroke="#4A4A4A" stroke-width="1.6" stroke-dasharray="7 5" marker-end="url(#seta)"/>
  <text x="832" y="558" font-size="13" fill="#1E8A95">«include»</text>
  <ellipse cx="700" cy="150" rx="132.6" ry="32" fill="#FFFFFF" stroke="#2BB3C0" stroke-width="2.5" filter="url(#sombra)"/>
  <text x="700" y="155" text-anchor="middle" font-size="14.5" fill="#2B2B2B">Publicar ofertas de insumos</text>
  <ellipse cx="700" cy="300" rx="110" ry="32" fill="#FFFFFF" stroke="#2BB3C0" stroke-width="2.5" filter="url(#sombra)"/>
  <text x="700" y="305" text-anchor="middle" font-size="14.5" fill="#2B2B2B">Fazer login</text>
  <ellipse cx="700" cy="390" rx="110" ry="32" fill="#FFFFFF" stroke="#2BB3C0" stroke-width="2.5" filter="url(#sombra)"/>
  <text x="700" y="395" text-anchor="middle" font-size="14.5" fill="#2B2B2B">Configurar conta</text>
  <ellipse cx="700" cy="480" rx="128.8" ry="32" fill="#FFFFFF" stroke="#2BB3C0" stroke-width="2.5" filter="url(#sombra)"/>
  <text x="700" y="485" text-anchor="middle" font-size="14.5" fill="#2B2B2B">Comparar preços de insumos</text>
  <ellipse cx="700" cy="570" rx="110" ry="32" fill="#FFFFFF" stroke="#2BB3C0" stroke-width="2.5" filter="url(#sombra)"/>
  <text x="700" y="575" text-anchor="middle" font-size="14.5" fill="#2B2B2B">Consultar mercado</text>
  <ellipse cx="700" cy="690" rx="110" ry="32" fill="#FFFFFF" stroke="#2BB3C0" stroke-width="2.5" filter="url(#sombra)"/>
  <text x="700" y="695" text-anchor="middle" font-size="14.5" fill="#2B2B2B">Simular venda</text>
  <ellipse cx="1030" cy="570" rx="110" ry="32" fill="#FFFFFF" stroke="#2BB3C0" stroke-width="2.5" filter="url(#sombra)"/>
  <text x="1030" y="575" text-anchor="middle" font-size="14.5" fill="#2B2B2B">Gerar análise com IA</text>
  <ellipse cx="700" cy="840" rx="110" ry="32" fill="#FFFFFF" stroke="#2BB3C0" stroke-width="2.5" filter="url(#sombra)"/>
  <text x="700" y="845" text-anchor="middle" font-size="14.5" fill="#2B2B2B">Gerenciar talhões</text>
  <ellipse cx="700" cy="930" rx="136.4" ry="32" fill="#FFFFFF" stroke="#2BB3C0" stroke-width="2.5" filter="url(#sombra)"/>
  <text x="700" y="935" text-anchor="middle" font-size="14.5" fill="#2B2B2B">Consultar alertas climáticos</text>
  <ellipse cx="700" cy="1020" rx="144" ry="32" fill="#FFFFFF" stroke="#2BB3C0" stroke-width="2.5" filter="url(#sombra)"/>
  <text x="700" y="1025" text-anchor="middle" font-size="14.5" fill="#2B2B2B">Receber alertas por e-mail/SMS</text>
  <g stroke="#2BB3C0" stroke-width="3" stroke-linecap="round" fill="none">
    <circle cx="150" cy="112" r="15" fill="#D6F1F4"/>
    <line x1="150" y1="127" x2="150" y2="172"/>
    <line x1="126" y1="144" x2="174" y2="144"/>
    <line x1="150" y1="172" x2="130" y2="206"/>
    <line x1="150" y1="172" x2="170" y2="206"/>
  </g>
  <text x="150" y="234" text-anchor="middle" font-size="16" font-weight="700" fill="#2B2B2B">Fornecedor de insumos</text>
  <g stroke="#2BB3C0" stroke-width="3" stroke-linecap="round" fill="none">
    <circle cx="150" cy="447" r="15" fill="#D6F1F4"/>
    <line x1="150" y1="462" x2="150" y2="507"/>
    <line x1="126" y1="479" x2="174" y2="479"/>
    <line x1="150" y1="507" x2="130" y2="541"/>
    <line x1="150" y1="507" x2="170" y2="541"/>
  </g>
  <text x="150" y="569" text-anchor="middle" font-size="16" font-weight="700" font-style="italic" fill="#2B2B2B">Usuário</text>
  <g stroke="#2BB3C0" stroke-width="3" stroke-linecap="round" fill="none">
    <circle cx="150" cy="882" r="15" fill="#D6F1F4"/>
    <line x1="150" y1="897" x2="150" y2="942"/>
    <line x1="126" y1="914" x2="174" y2="914"/>
    <line x1="150" y1="942" x2="130" y2="976"/>
    <line x1="150" y1="942" x2="170" y2="976"/>
  </g>
  <text x="150" y="1004" text-anchor="middle" font-size="16" font-weight="700" fill="#2B2B2B">Produtor rural</text>
</svg>
